# AST/ASF file generated using VICON BodyLanguage
# -----------------------------------------------
:version 1.10
:name VICON
:units
  mass 1.0
  length 0.45
  angle deg
:documentation
   .ast/.asf automatically generated from VICON data using
   VICON BodyBuilder and BodyLanguage model FoxedUp or BRILLIANT.MOD
:root
   order TX TY TZ RX RY RZ
   axis XYZ
   position 0 0 0  
   orientation 0 0 0 
:bonedata
  begin
     id 1 
     name lhipjoint
     direction 0.78388 -0.462562 0.414208 
     length 3.01181 
     axis 0 0 0  XYZ
  end
  begin
     id 2 
     name lfemur
     direction 0.34202 -0.939693 0  
     length 6.04673  
     axis 0 0 20  XYZ
    dof rx ry rz
    limits (-160.0 20.0)
           (-70.0 70.0)
           (-60.0 70.0)
  end
  begin
     id 3 
     name ltibia
     direction 0.34202 -0.939693 0   
     length 7.211   
     axis 0 0 20   XYZ
    dof rx
    limits (-10.0 170.0)
  end
  begin
     id 4 
     name lfoot
     direction 0.121887 -0.334882 0.934344   
     length 2.13567   
     axis -90 7.62852e-016 20   XYZ
    dof rx rz
    limits (-45.0 90.0)
           (-70.0 20.0)
  end
  begin
     id 5 
     name ltoes
     direction 1.53555e-011 -4.2179e-011 1   
     length 1.05957   
     axis -90 7.62852e-016 20   XYZ
    dof rx
    limits (-90.0 20.0)
  end
  begin
     id 6 
     name rhipjoint
     direction -0.769387 -0.475875 0.426129   
     length 2.92756  
     axis 0 0 0  XYZ 
  end
  begin
     id 7 
     name rfemur
     direction -0.34202 -0.939693 0   
     length 6.35468   
     axis 0 0 -20   XYZ
    dof rx ry rz
    limits (-160.0 20.0)
           (-70.0 70.0)
           (-70.0 60.0)
  end
  begin
     id 8 
     name rtibia
     direction -0.34202 -0.939693 0   
     length 7.37886   
     axis 0 0 -20   XYZ
    dof rx
    limits (-10.0 170.0)
 end
 begin
     id 9 
     name rfoot
     direction -0.101763 -0.279592 0.954711   
     length 2.21478  
     axis -90 -7.62852e-016 -20   XYZ
    dof rx rz
    limits (-45.0 90.0)
           (-20.0 70.0)
  end
  begin
     id 10 
     name rtoes
     direction -1.53494e-011 -4.21851e-011 1   
     length 1.10506   
     axis -90 -7.62852e-016 -20   XYZ
    dof rx
    limits (-90.0 20.0)
  end
  begin
     id 11 
     name lowerback
     direction 0.00747405 0.999267 0.0375481   
     length 2.13259   
     axis 0 0 0   XYZ
    dof rx ry rz
    limits (-20.0 45.0)
           (-30.0 30.0)
           (-30.0 30.0)
  end
  begin
     id 12 
     name upperback
     direction 0.00661626 0.996177 0.0871029   
     length 2.10528   
     axis 0 0 0   XYZ
    dof rx ry rz
    limits (-20.0 45.0)
           (-30.0 30.0)
           (-30.0 30.0)
  end
  begin
     id 13 
     name thorax
     direction 0.00320659 0.997679 0.0680167   
     length 2.11338   
     axis 0 0 0   XYZ
    dof rx ry rz
    limits (-20.0 45.0)
           (-30.0 30.0)
           (-30.0 30.0)
  end
  begin
     id 14 
     name lowerneck
     direction 0.0374841 0.973033 0.227602   
     length 1.42765   
     axis 0 0 0   XYZ
    dof rx ry rz
    limits (-20.0 45.0)
           (-30.0 30.0)
           (-30.0 30.0)
  end
  begin
     id 15 
     name upperneck
     direction 0.00481585 0.989155 -0.146795   
     length 1.47593   
     axis 0 0 0   XYZ
    dof rx ry rz
    limits (-20.0 45.0)
           (-30.0 30.0)
           (-30.0 30.0)
  end
  begin
     id 16
     name head
     direction -0.00292522 0.997206 -0.0746423  
     length 1.48116  
     axis 0 0 0   XYZ
    dof rx ry rz
    limits (-20.0 45.0)
           (-30.0 30.0)
           (-30.0 30.0)
  end
  begin
     id 17 
     name lclavicle
     direction 0.951444 0.305606 0.0368784  
     length 3.01855  
     axis 0 0 0   XYZ
    dof ry rz
    limits (-20.0 10.0)
           (0.0 20.0)
  end
  begin
     id 18 
     name lhumerus
     direction 1 -4.48977e-011 2.61664e-027   
     length 5.52731   
     axis 180 -30 -90   XYZ
    dof rx ry rz
    limits (-60.0 90.0)
           (-90.0 90.0)
           (-90.0 90.0)
  end
  begin
     id 19
     name lradius
     direction 1 -4.48944e-011 8.22157e-027   
     length 3.11059   
     axis 180 -30 -90   XYZ
    dof rx
    limits (-10.0 170.0)
  end
  begin
     id 20
     name lwrist
     direction 1 -4.48976e-011 1.5779e-026   
     length 1.5553   
     axis -1.15221e-014 90 90   XYZ
    dof ry
    limits (-180.0 0.0)
 end
  begin
     id 21 
     name lhand
     direction 1 -4.49025e-011 3.1558e-026   
     length 0.419626   
     axis -2.01367e-014 90 90   XYZ
    dof rx rz
    limits (-90.0 90.0)
           (-45.0 45.0)
  end
  begin
     id 22 
     name lfingers
     direction 1 -4.4904e-011 6.31161e-026   
     length 0.338313   
     axis -4.02734e-014 90 90   XYZ
    dof rx
    limits (0.0 90.0)
  end
  begin
     id 23
     name lthumb
     direction 0.707107 -6.35004e-011 0.707107   
     length 0.485752   
     axis -90 45 2.85299e-015   XYZ
    dof rx rz
    limits (-45.0 45.0)
           (-45.0 45.0)
  end
  begin
     id 24 
     name rclavicle
     direction -0.968876 0.223791 0.105816   
     length 3.04177  
     axis 0 0 0   XYZ 
    dof ry rz
    limits (-10.0 20.0)
           (-20.0 0.0)
  end
  begin
     id 25 
     name rhumerus
     direction -1 -4.48962e-011 -1.01384e-027  
     length 5.25396   
     axis 180 30 90   XYZ
    dof rx ry rz
    limits (-90.0 60.0)
           (-90.0 90.0)
           (-90.0 90.0)
  end
  begin
     id 26 
     name rradius
     direction -1 -4.48955e-011 8.88542e-027   
     length 3.10567   
     axis 180 30 90   XYZ
    dof rx
    limits (-10.0 170.0)
  end
  begin
     id 27 
     name rwrist
     direction -1 -4.48994e-011 1.5779e-026   
     length 1.55283   
     axis -1.15221e-014 -90 -90   XYZ
    dof ry
    limits (-180.0 0.0)
  end
  begin
     id 28
     name rhand
     direction -1 -4.48891e-011 3.1558e-026   
     length 0.498676   
     axis -2.01367e-014 -90 -90   XYZ
    dof rx rz
    limits (-90.0 90.0)
           (-45.0 45.0)
  end
  begin
     id 29
     name rfingers
     direction -1 -4.48972e-011 6.31161e-026   
     length 0.402045   
     axis -4.02734e-014 -90 -90   XYZ
    dof rx
    limits (0.0 90.0)
  end
  begin
     id 30
     name rthumb
     direction -0.707107 -6.34849e-011 0.707107   
     length 0.577259   
     axis -90 -45 -2.85299e-015   XYZ
    dof rx rz
    limits (-45.0 45.0)
           (-45.0 45.0)
  end
:hierarchy
  begin
    root lhipjoint rhipjoint lowerback
    lhipjoint lfemur
    lfemur ltibia
    ltibia lfoot
    lfoot ltoes
    rhipjoint rfemur
    rfemur rtibia
    rtibia rfoot
    rfoot rtoes
    lowerback upperback
    upperback thorax
    thorax lowerneck lclavicle rclavicle
    lowerneck upperneck
    upperneck head
    lclavicle lhumerus
    lhumerus lradius
    lradius lwrist
    lwrist lhand lthumb
    lhand lfingers
    rclavicle rhumerus
    rhumerus rradius
    rradius rwrist
    rwrist rhand rthumb
    rhand rfingers
  end

#!OML:ASF H:\Pregnant\Project 1\Capture day 1\Session 1\femalepreg.ASF
:FULLY-SPECIFIED
:DEGREES
69
root 3.16938 15.1339 31.1704 173.092 -84.4868 -150.583
lowerback -14.1801 3.11519 0.317541
upperback -4.75326 3.9061 -1.16014
thorax 3.02367 1.84019 -0.750017
lowerneck -12.4462 12.1895 16.0473
upperneck 22.064 10.7599 8.15488
head 9.6924 6.983 1.6479
rclavicle -3.55328e-014 0
rhumerus -49.7413 -9.56212 -69.4136
rradius 50.9335
rwrist -59.3001
rhand -20.371 -57.113
rfingers 7.12502
rthumb 5.98168 -87.0085
lclavicle -3.55328e-014 0
lhumerus -36.4712 18.1219 57.8998
lradius 47.6147
lwrist 69.6773
lhand -16.4874 13.1473
lfingers 7.12502
lthumb 9.72997 42.9026
rfemur -39.372 0.328477 20.3845
rtibia 45.3459
rfoot -22.5198 -5.00321
rtoes -14.4095
lfemur -41.0598 -4.23446 -17.6535
ltibia 35.6803
lfoot -13.8991 7.32698
ltoes -11.3134
70
root 3.16695 15.1465 31.1464 174.118 -84.4636 -151.604
lowerback -14.2467 3.11407 0.355538
upperback -4.80973 3.89643 -1.21363
thorax 3.00632 1.83288 -0.827079
lowerneck -12.41 12.2371 16.0452
upperneck 21.9236 10.8816 8.04793
head 9.64272 7.02298 1.6193
rclavicle 4.77083e-015 -2.50469e-014
rhumerus -49.8759 -10.0427 -69.2417
rradius 51.0632
rwrist -59.7066
rhand -19.9363 -56.6652
rfingers 7.12502
rthumb 6.40131 -86.5484
lclavicle 4.77083e-015 -2.50469e-014
lhumerus -36.7662 18.6454 57.4103
lradius 47.6913
lwrist 69.9381
lhand -16.3947 12.9168
lfingers 7.12502
lthumb 9.81939 42.6679
rfemur -39.2124 0.733398 20.3046
rtibia 45.0706
rfoot -22.4543 -5.38564
rtoes -14.5446
lfemur -40.7959 -4.3607 -17.59
ltibia 35.2623
lfoot -13.7269 7.52243
ltoes -11.496
71
root 3.16466 15.1588 31.1236 175.23 -84.4446 -152.709
lowerback -14.3176 3.10516 0.370998
upperback -4.86531 3.87876 -1.25076
thorax 2.98934 1.82166 -0.875625
lowerneck -12.3624 12.2823 16.0236
upperneck 21.7787 11.0136 7.91896
head 9.58931 7.06419 1.58611
rclavicle -4.87022e-014 -7.55382e-015
rhumerus -50.0121 -10.4272 -69.0998
rradius 51.2935
rwrist -60.0075
rhand -19.47 -56.1142
rfingers 7.12502
rthumb 6.85143 -85.9834
lclavicle -4.87022e-014 -7.55382e-015
lhumerus -37.075 19.2388 56.9209
lradius 47.7757
lwrist 70.0723
lhand -16.2419 12.6756
lfingers 7.12502
lthumb 9.96677 42.4197
rfemur -39.0633 1.06527 20.2319
rtibia 44.8018
rfoot -22.3921 -5.73263
rtoes -14.7178
lfemur -40.5318 -4.47735 -17.547
ltibia 34.8328
lfoot -13.5533 7.69581
ltoes -11.6547
72
root 3.16236 15.1711 31.1013 176.369 -84.4259 -153.842
lowerback -14.3897 3.0904 0.366506
upperback -4.91797 3.8555 -1.2703
thorax 2.97328 1.80785 -0.895536
lowerneck -12.308 12.3247 15.9968
upperneck 21.6358 11.1529 7.75608
head 9.53706 7.1056 1.54278
rclavicle -1.50082e-014 -1.86858e-014
rhumerus -50.1405 -10.7113 -68.9875
rradius 51.6075
rwrist -60.1661
rhand -19.0305 -55.459
rfingers 7.12502
rthumb 7.27566 -85.3139
lclavicle -1.50082e-014 -1.86858e-014
lhumerus -37.3955 19.8766 56.4399
lradius 47.87
lwrist 70.0819
lhand -15.9079 12.6547
lfingers 7.12502
lthumb 10.289 42.383
rfemur -38.9121 1.37025 20.1606
rtibia 44.5343
rfoot -22.3334 -6.0625
rtoes -14.8347
lfemur -40.2591 -4.57966 -17.5183
ltibia 34.39
lfoot -13.3751 7.84509
ltoes -11.8228
73
root 3.1602 15.1834 31.0802 177.554 -84.4121 -155.015
lowerback -14.4689 3.06694 0.34416
upperback -4.97202 3.8223 -1.27388
thorax 2.95708 1.78912 -0.890227
lowerneck -12.2357 12.3612 15.9654
upperneck 21.4921 11.2977 7.55787
head 9.48323 7.14602 1.48767
rclavicle -2.55438e-014 -1.47101e-014
rhumerus -50.2485 -10.9056 -68.9031
rradius 51.9735
rwrist -60.1452
rhand -18.6244 -54.7277
rfingers 7.12502
rthumb 7.66769 -84.5686
lclavicle -2.55438e-014 -1.47101e-014
lhumerus -37.7322 20.5023 55.9437
lradius 47.9822
lwrist 70.0005
lhand -15.5569 12.7164
lfingers 7.12502
lthumb 10.6276 42.4277
rfemur -38.7695 1.63706 20.0875
rtibia 44.2675
rfoot -22.2774 -6.36144
rtoes -14.8977
lfemur -39.9889 -4.67187 -17.5052
ltibia 33.9311
lfoot -13.1867 7.97125
ltoes -11.9973
74
root 3.15808 15.1955 31.0604 178.734 -84.4083 -156.182
lowerback -14.5506 3.03501 0.317457
upperback -5.02691 3.77804 -1.26909
thorax 2.9402 1.76491 -0.875588
lowerneck -12.1578 12.3933 15.947
upperneck 21.3599 11.4412 7.3255
head 9.43574 7.18438 1.4196
rclavicle -2.68359e-014 -1.15295e-014
rhumerus -50.3315 -11.0272 -68.8505
rradius 52.3697
rwrist -59.9266
rhand -18.201 -53.9855
rfingers 7.12502
rthumb 8.07632 -83.8112
lclavicle -2.68359e-014 -1.15295e-014
lhumerus -38.078 21.1311 55.4466
lradius 48.1062
lwrist 69.8422
lhand -15.0207 13.1724
lfingers 7.12502
lthumb 11.1448 42.8564
rfemur -38.6303 1.86029 20.0168
rtibia 44.0028
rfoot -22.2185 -6.64466
rtoes -14.9989
lfemur -39.7184 -4.76891 -17.5014
ltibia 33.4589
lfoot -12.9881 8.08196
ltoes -12.1605
75
root 3.15593 15.2076 31.0418 179.926 -84.4109 -157.357
lowerback -14.6374 2.99911 0.291523
upperback -5.0841 3.72811 -1.26264
thorax 2.92353 1.73776 -0.860489
lowerneck -12.086 12.4174 15.9507
upperneck 21.2455 11.571 7.06807
head 9.399 7.21661 1.33995
rclavicle 1.80894e-014 1.19271e-015
rhumerus -50.391 -11.1139 -68.8245
rradius 52.7733
rwrist -59.5042
rhand -17.7697 -53.2177
rfingers 7.12502
rthumb 8.49258 -83.0269
lclavicle 1.80894e-014 1.19271e-015
lhumerus -38.4247 21.7247 54.9503
lradius 48.2424
lwrist 69.6709
lhand -14.4167 13.8814
lfingers 7.12502
lthumb 11.7273 43.5331
rfemur -38.498 2.05495 19.9399
rtibia 43.7435
rfoot -22.1696 -6.87708
rtoes -14.9487
lfemur -39.4498 -4.87354 -17.5043
ltibia 32.9768
lfoot -12.7811 8.18814
ltoes -12.3329
76
root 3.15374 15.2195 31.0243 181.097 -84.4196 -158.509
lowerback -14.7299 2.95829 0.266863
upperback -5.14292 3.67108 -1.25097
thorax 2.90771 1.70702 -0.84173
lowerneck -12.0246 12.4306 15.9669
upperneck 21.1551 11.6826 6.79043
head 9.37475 7.24081 1.25148
rclavicle 8.33405e-014 -9.54166e-015
rhumerus -50.4252 -11.1553 -68.8189
rradius 53.1777
rwrist -58.9186
rhand -17.319 -52.4526
rfingers 7.12502
rthumb 8.92754 -82.2437
lclavicle 8.33405e-014 -9.54166e-015
lhumerus -38.7745 22.2977 54.4665
lradius 48.3898
lwrist 69.5169
lhand -13.8061 14.7417
lfingers 7.12502
lthumb 12.3161 44.359
rfemur -38.3734 2.20288 19.8673
rtibia 43.4916
rfoot -22.1303 -7.04447
rtoes -14.7613
lfemur -39.1857 -4.98967 -17.508
ltibia 32.492
lfoot -12.5685 8.29594
ltoes -12.492
77
root 3.15132 15.2312 31.0073 182.217 -84.4254 -159.614
lowerback -14.825 2.91507 0.242298
upperback -5.19992 3.61075 -1.2344
thorax 2.89487 1.67469 -0.818384
lowerneck -11.9755 12.4359 15.9808
upperneck 21.0896 11.7808 6.5038
head 9.36187 7.25913 1.16062
rclavicle -5.1684e-015 -3.18055e-014
rhumerus -50.4291 -11.1753 -68.8236
rradius 53.5589
rwrist -58.2029
rhand -16.7867 -51.7139
rfingers 7.12502
rthumb 9.44115 -81.4824
lclavicle -5.1684e-015 -3.18055e-014
lhumerus -39.1218 22.8551 54.0021
lradius 48.5429
lwrist 69.3989
lhand -13.2487 15.6354
lfingers 7.12502
lthumb 12.8534 45.2196
rfemur -38.2471 2.34945 19.7966
rtibia 43.2478
rfoot -22.0943 -7.19816
rtoes -14.5041
lfemur -38.9183 -5.11013 -17.5071
ltibia 32.0114
lfoot -12.3593 8.40862
ltoes -12.642
78
root 3.14868 15.2426 30.9904 183.256 -84.4224 -160.643
lowerback -14.9213 2.87488 0.218904
upperback -5.25291 3.55425 -1.21077
thorax 2.88659 1.6444 -0.787571
lowerneck -11.9486 12.4265 15.9658
upperneck 21.0506 11.8554 6.22903
head 9.35883 7.26703 1.07688
rclavicle -1.34925e-014 2.10712e-014
rhumerus -50.4079 -11.1723 -68.8298
rradius 53.9197
rwrist -57.4299
rhand -16.2075 -50.977
rfingers 7.12502
rthumb 9.99995 -80.7194
lclavicle -1.34925e-014 2.10712e-014
lhumerus -39.458 23.3741 53.5806
lradius 48.6972
lwrist 69.3399
lhand -12.8278 16.3606
lfingers 7.12502
lthumb 13.2592 45.9188
rfemur -38.1181 2.49512 19.7337
rtibia 43.0132
rfoot -22.0565 -7.33851
rtoes -14.2494
lfemur -38.6491 -5.22687 -17.4991
ltibia 31.545
lfoot -12.1586 8.52684
ltoes -12.814
79
root 3.14598 15.2535 30.9739 184.191 -84.4117 -161.574
lowerback -15.0185 2.83729 0.201439
upperback -5.30178 3.50041 -1.18147
thorax 2.88325 1.61555 -0.75363
lowerneck -11.9407 12.4054 15.9084
upperneck 21.0326 11.9116 5.98026
head 9.36119 7.26692 1.00683
rclavicle -1.47349e-014 -1.11319e-014
rhumerus -50.3574 -11.1555 -68.8317
rradius 54.2474
rwrist -56.66
rhand -15.5801 -50.243
rfingers 7.12502
rthumb 10.6052 -79.9554
lclavicle -1.47349e-014 -1.11319e-014
lhumerus -39.7756 23.8322 53.2016
lradius 48.8437
lwrist 69.3403
lhand -12.6341 16.715
lfingers 7.12502
lthumb 13.4459 46.2611
rfemur -37.9895 2.65163 19.6756
rtibia 42.7882
rfoot -22.0109 -7.48055
rtoes -14.0561
lfemur -38.3857 -5.33278 -17.4846
ltibia 31.1013
lfoot -11.9683 8.644
ltoes -12.9939
80
root 3.14319 15.2638 30.9573 184.973 -84.3881 -162.358
lowerback -15.1126 2.80655 0.193603
upperback -5.34519 3.45461 -1.15024
thorax 2.88455 1.59084 -0.72172
lowerneck -11.9567 12.3719 15.8167
upperneck 21.0331 11.9443 5.76287
head 9.36903 7.25731 0.95077
rclavicle -2.1096e-014 0
rhumerus -50.2856 -11.1433 -68.8339
rradius 54.5452
rwrist -55.9461
rhand -14.9357 -49.5106
rfingers 7.12502
rthumb 11.2267 -79.1902
lclavicle -2.1096e-014 0
lhumerus -40.0648 24.2231 52.8761
lradius 48.9766
lwrist 69.3812
lhand -12.5131 16.931
lfingers 7.12502
lthumb 13.5625 46.4693
rfemur -37.8579 2.81224 19.6316
rtibia 42.5739
rfoot -21.9585 -7.60801
rtoes -13.923
lfemur -38.1274 -5.42341 -17.4577
ltibia 30.6903
lfoot -11.7956 8.758
ltoes -13.1627
81
root 3.14077 15.2734 30.9416 185.602 -84.3578 -162.986
lowerback -15.2096 2.77689 0.202621
upperback -5.38893 3.40756 -1.11588
thorax 2.88785 1.56539 -0.696174
lowerneck -11.9809 12.3299 15.7009
upperneck 21.0423 11.9608 5.57485
head 9.37721 7.24143 0.906234
rclavicle -1.33434e-014 1.0138e-014
rhumerus -50.1912 -11.1123 -68.8408
rradius 54.8155
rwrist -55.3377
rhand -14.2889 -48.7889
rfingers 7.12502
rthumb 11.8505 -78.4335
lclavicle -1.33434e-014 1.0138e-014
lhumerus -40.3305 24.5171 52.5685
lradius 49.0907
lwrist 69.4455
lhand -12.5865 16.837
lfingers 7.12502
lthumb 13.4918 46.38
rfemur -37.7417 2.97955 19.5963
rtibia 42.3708
rfoot -21.8929 -7.72632
rtoes -13.867
lfemur -37.8981 -5.50606 -17.4178
ltibia 30.3181
lfoot -11.6342 8.8726
ltoes -13.3373
82
root 3.13887 15.282 30.9269 186.037 -84.3246 -163.417
lowerback -15.3035 2.74964 0.234276
upperback -5.43214 3.36027 -1.07657
thorax 2.8911 1.53975 -0.678392
lowerneck -12.0204 12.2775 15.551
upperneck 21.0598 11.9579 5.42275
head 9.38553 7.21782 0.876718
rclavicle 2.08972e-014 -3.20043e-014
rhumerus -50.0761 -11.0691 -68.8478
rradius 55.0548
rwrist -54.8426
rhand -13.673 -48.0804
rfingers 7.12502
rthumb 12.4443 -77.69
lclavicle 2.08972e-014 -3.20043e-014
lhumerus -40.5715 24.7536 52.2999
lradius 49.181
lwrist 69.4766
lhand -12.679 16.6988
lfingers 7.12502
lthumb 13.4026 46.2477
rfemur -37.6365 3.1373 19.5776
rtibia 42.1774
rfoot -21.8153 -7.8305
rtoes -13.8983
lfemur -37.697 -5.59439 -17.3573
ltibia 29.9877
lfoot -11.4847 8.99553
ltoes -13.4955
